<svg width="720" height="720" viewBox="0 0 720 720" fill="none" xmlns="http://www.w3.org/2000/svg">
<rect width="720" height="720" rx="130" fill="#625DF5"/>
<path d="M585 334.978H453.414L567.374 269.183L542.347 225.824L428.387 291.618L494.167 177.667L450.808 152.626L385.027 266.577V135H334.972V266.589L269.167 152.626L225.821 177.654L291.614 291.606L177.653 225.824L152.625 269.17L266.586 334.965H135V385.023H266.573L152.625 450.817L177.653 494.177L291.601 428.394L225.808 542.345L269.167 567.374L334.96 453.411V585H385.016V453.423L450.796 567.374L494.153 542.345L428.361 428.383L542.321 494.177L567.35 450.817L453.402 385.035H584.974V334.978H585ZM360 428.079C322.257 428.079 291.664 397.487 291.664 359.742C291.664 321.998 322.257 291.404 360 291.404C397.743 291.404 428.335 321.998 428.335 359.742C428.335 397.487 397.743 428.079 360 428.079Z" fill="white"/>
</svg>
